<?xml version="1.0" standalone="no"?>
<!DOCTYPE svg PUBLIC "-//W3C//DTD SVG 20010904//EN"
 "http://www.w3.org/TR/2001/REC-SVG-20010904/DTD/svg10.dtd">
<svg version="1.0" xmlns="http://www.w3.org/2000/svg"
 width="200.000000pt" height="100.000000pt" viewBox="0 0 200.000000 100.000000"
 preserveAspectRatio="xMidYMid meet">

<g transform="translate(-1.000000,100.000000) scale(0.102000,-0.100000)"
fill="#000000" stroke="none">
<path d="M0 800 l0 -200 100 0 100 0 0 -100 0 -100 -100 0 -100 0 0 -100 0
-100 100 0 100 0 0 -100 0 -100 100 0 100 0 0 100 0 100 200 0 200 0 0 -100 0
-100 100 0 100 0 0 100 0 100 100 0 100 0 0 -100 0 -100 100 0 100 0 0 100 0
100 200 0 200 0 0 100 0 100 100 0 100 0 0 100 0 100 -100 0 -100 0 0 100 0
100 100 0 100 0 0 100 0 100 -1000 0 -1000 0 0 -200z m1000 -100 l0 -100 100
0 100 0 0 -100 0 -100 100 0 100 0 0 -100 0 -100 -100 0 -100 0 0 100 0 100
-100 0 -100 0 0 -100 0 -100 -100 0 -100 0 0 100 0 100 100 0 100 0 0 100 0
100 -100 0 -100 0 0 100 0 100 100 0 100 0 0 -100z m600 0 l0 -100 100 0 100
0 0 -100 0 -100 -100 0 -100 0 0 100 0 100 -100 0 -100 0 0 100 0 100 100 0
100 0 0 -100z m-1000 -200 l0 -100 -100 0 -100 0 0 -100 0 -100 -100 0 -100 0
0 100 0 100 100 0 100 0 0 100 0 100 100 0 100 0 0 -100z"/>
</g>
</svg>
